<?xml version="1.0" standalone="no"?>
<!DOCTYPE svg PUBLIC "-//W3C//DTD SVG 20010904//EN"
 "http://www.w3.org/TR/2001/REC-SVG-20010904/DTD/svg10.dtd">
<svg version="1.0" xmlns="http://www.w3.org/2000/svg"
 width="300.000000pt" height="300.000000pt" viewBox="0 0 300.000000 300.000000"
 preserveAspectRatio="xMidYMid meet">
<metadata>
Created by potrace 1.10, written by Peter Selinger 2001-2011
</metadata>
<g transform="translate(0.000000,300.000000) scale(0.100000,-0.100000)"
fill="#000000" stroke="none">
<path d="M1295 2866 c-291 -48 -546 -179 -754 -387 -201 -200 -333 -456 -381
-736 -122 -710 334 -1397 1035 -1561 183 -43 412 -46 596 -8 285 60 564 222
745 433 170 200 270 405 321 659 24 121 24 375 -1 497 -52 269 -174 502 -360
696 -197 203 -431 334 -709 396 -98 22 -385 29 -492 11z m367 -30 c153 -23
243 -44 320 -75 414 -164 722 -510 822 -921 58 -243 58 -400 -1 -650 -84 -353
-308 -644 -648 -843 -117 -68 -319 -132 -475 -151 -162 -19 -231 -19 -349 -1
-170 27 -353 89 -481 163 -231 134 -415 332 -534 576 -277 566 -110 1262 392
1636 169 126 324 198 515 241 177 39 297 46 439 25z"/>
<path d="M1393 2775 c-39 -5 -75 -14 -80 -19 -5 -5 -3 -6 4 -2 7 3 63 9 125
13 62 3 114 7 116 8 10 9 -104 8 -165 0z"/>
<path d="M1205 2753 c-126 -28 -287 -100 -372 -165 -34 -26 -68 -48 -75 -48
-13 0 -80 -53 -127 -101 -85 -84 -162 -183 -202 -258 -25 -47 -58 -107 -72
-132 -32 -55 -85 -212 -98 -294 -44 -270 -15 -543 80 -748 17 -37 31 -71 31
-75 1 -4 22 -41 48 -84 55 -90 193 -250 251 -293 22 -16 41 -35 41 -41 0 -6 6
-16 13 -22 10 -9 22 3 54 51 56 85 181 203 281 264 88 54 227 105 332 122 268
44 559 -45 767 -233 51 -46 163 -186 163 -203 0 -12 -140 -103 -217 -142 -411
-206 -918 -176 -1296 77 -70 46 -103 54 -45 10 114 -86 294 -167 468 -209 82
-20 121 -23 280 -24 201 0 280 12 435 65 166 56 385 187 385 229 0 11 8 27 17
37 16 16 16 16 -5 10 -32 -10 -27 7 10 38 17 14 27 26 21 26 -6 0 -16 -7 -23
-15 -21 -25 -36 -18 -82 37 -129 156 -301 267 -498 320 -73 19 -108 23 -245
22 -144 0 -169 -3 -248 -27 -122 -38 -208 -79 -302 -147 -87 -63 -162 -138
-213 -212 -18 -27 -37 -48 -42 -48 -25 0 -154 129 -225 225 -17 22 -33 42 -36
45 -8 6 -40 68 -39 75 0 3 -6 13 -15 21 -8 9 -15 24 -15 35 0 10 -5 19 -10 19
-6 0 -9 3 -8 8 0 4 -11 33 -26 65 -99 216 -120 552 -51 797 9 30 18 64 20 74
9 41 59 156 67 156 5 0 7 4 4 9 -3 5 1 14 9 21 8 7 15 16 15 21 0 14 91 161
119 193 96 107 199 200 286 257 89 59 160 101 167 99 2 -1 26 9 53 21 57 26
163 58 215 65 19 3 36 7 39 9 5 6 -56 4 -84 -2z"/>
<path d="M1695 2749 c22 -4 58 -8 80 -7 l40 1 -45 8 c-25 4 -61 7 -80 7 l-35
0 40 -9z"/>
<path d="M1825 2733 c12 -12 107 -45 112 -39 2 2 -15 11 -39 19 -24 8 -52 18
-63 22 -13 5 -17 5 -10 -2z"/>
<path d="M2014 2662 c4 -7 13 -12 20 -12 6 0 34 -14 60 -31 27 -16 50 -28 52
-26 4 4 -92 63 -120 73 -13 5 -17 4 -12 -4z"/>
<path d="M2160 2586 c0 -3 22 -20 49 -38 50 -33 214 -187 231 -217 8 -14 9
-14 10 -1 0 19 -187 195 -246 233 -24 15 -44 25 -44 23z"/>
<path d="M1345 2420 c-11 -5 -14 -9 -7 -9 7 -1 10 -6 6 -12 -4 -8 1 -9 15 -4
69 22 233 -12 263 -54 14 -19 123 -67 112 -49 -4 6 -1 9 7 6 8 -3 13 -12 11
-19 -2 -8 -1 -11 3 -8 6 7 29 -10 102 -78 25 -24 48 -43 50 -43 3 0 18 -11 35
-25 16 -14 25 -25 19 -25 -5 0 -13 5 -16 10 -3 6 -17 7 -31 4 -14 -4 -24 -2
-24 5 0 15 -76 34 -97 23 -10 -5 -42 -8 -71 -8 -43 1 -57 -3 -74 -21 -22 -24
-81 -32 -93 -14 -10 18 -70 -8 -101 -44 -18 -20 -45 -38 -60 -41 -16 -3 -36
-12 -45 -20 -8 -8 -20 -14 -25 -14 -5 0 -28 -20 -51 -45 -23 -24 -55 -52 -70
-62 -15 -10 -32 -23 -36 -30 -4 -7 -14 -13 -21 -13 -17 0 -28 40 -17 54 16 20
34 100 36 161 1 33 5 78 10 99 5 26 4 37 -2 33 -16 -10 -30 -104 -32 -209 -1
-33 -25 -58 -57 -58 -25 0 -32 14 -13 26 16 10 -10 24 -44 24 -16 0 -40 8 -53
19 -22 17 -22 20 -7 32 15 12 16 12 10 -5 -6 -16 -5 -17 8 -6 9 7 26 27 38 44
15 22 16 27 4 17 -25 -20 -21 -5 9 35 15 19 22 34 16 34 -11 0 -55 -56 -64
-81 -4 -9 -22 -24 -42 -33 -20 -9 -36 -21 -36 -26 0 -6 -4 -10 -9 -10 -6 0 -8
9 -6 19 2 12 -1 18 -8 16 -7 -2 -34 -6 -61 -9 -55 -6 -74 -16 -31 -16 36 0 27
-9 -14 -15 -17 -2 -43 -14 -58 -26 -20 -16 -22 -20 -8 -14 11 4 29 9 40 11 17
4 17 3 -2 -7 -13 -7 -23 -15 -23 -20 0 -4 -8 -5 -18 -3 -10 3 -29 -7 -46 -25
-17 -17 -25 -31 -19 -31 5 0 18 9 28 20 13 14 21 17 26 9 5 -9 17 -6 43 10 20
13 36 26 36 30 0 4 17 14 38 23 49 20 135 17 161 -6 14 -12 27 -16 43 -10 20
6 21 5 9 -9 -11 -14 -11 -18 3 -23 9 -4 26 -25 37 -47 17 -33 18 -39 5 -34
-11 5 -16 1 -16 -14 0 -16 -4 -19 -20 -14 -23 7 -25 2 -10 -26 8 -14 6 -34 -6
-75 -9 -30 -19 -53 -22 -50 -3 4 -20 -7 -37 -24 -31 -30 -65 -33 -65 -6 0 6
-8 2 -16 -9 -15 -20 -16 -19 -51 20 -34 38 -35 39 -29 13 4 -18 2 -28 -5 -28
-8 0 -7 -5 2 -16 12 -14 14 -14 20 3 6 13 8 10 8 -13 1 -23 7 -33 21 -37 18
-5 18 -4 2 22 -16 24 -16 25 0 13 10 -8 22 -11 29 -7 8 5 9 1 4 -15 l-7 -23
23 22 c26 24 48 29 29 6 -16 -19 -11 -19 29 1 38 19 61 13 61 -16 0 -12 4 -19
8 -16 5 3 8 -17 8 -44 0 -72 61 -188 138 -266 67 -67 172 -124 264 -143 277
-57 563 146 602 429 16 110 16 111 55 155 19 22 42 53 50 69 15 30 20 97 8
109 -4 4 -14 29 -23 55 -12 33 -21 46 -33 44 -10 -2 -17 2 -17 8 0 5 5 10 10
10 18 0 11 20 -16 45 -14 13 -25 25 -24 27 0 2 -4 18 -11 36 -11 31 -39 45
-39 20 0 -9 -3 -9 -9 1 -5 8 -7 20 -4 28 3 8 -2 13 -13 13 -11 0 -53 31 -94
70 -109 101 -161 137 -181 124 -5 -3 -31 8 -57 24 -26 16 -69 38 -95 47 -33
13 -44 21 -35 26 8 5 -9 8 -39 7 -29 0 -53 -5 -53 -9 0 -5 -14 -9 -31 -9 -17
0 -28 4 -24 10 7 11 7 11 -20 0z m519 -314 c-4 -10 9 -15 52 -21 65 -8 94 -22
87 -42 -3 -8 9 -29 26 -47 20 -20 29 -39 26 -48 -4 -11 1 -18 14 -23 15 -4 19
-13 16 -35 -2 -17 3 -34 11 -41 8 -6 14 -20 14 -30 0 -10 5 -21 11 -24 6 -5 4
-12 -7 -20 -10 -7 -15 -19 -11 -28 6 -16 -43 -67 -65 -67 -6 0 -8 -6 -5 -14 3
-8 -1 -20 -9 -26 -12 -11 -14 -3 -14 49 0 33 4 61 10 61 5 0 7 7 3 15 -3 9 3
25 12 35 18 19 17 20 -7 20 -17 0 -38 13 -62 40 l-36 40 -142 0 c-130 -1 -141
-2 -123 -16 17 -12 18 -16 5 -24 -8 -5 -17 -7 -21 -4 -10 6 -139 -58 -134 -66
3 -4 -13 -15 -35 -25 -41 -18 -50 -30 -28 -37 16 -6 -31 -68 -60 -79 -13 -5
-35 -9 -49 -9 -18 0 -24 -4 -19 -15 4 -12 -3 -15 -34 -15 -30 0 -40 -4 -45
-21 -4 -11 -9 -18 -12 -15 -3 3 -20 -6 -38 -19 -34 -27 -55 -32 -55 -14 0 11
-20 8 -75 -8 -17 -5 -18 -3 -8 9 9 10 9 18 2 25 -8 8 -8 17 0 32 10 17 9 21
-3 21 -14 0 -14 5 1 36 12 23 14 38 7 42 -18 12 -11 66 9 74 11 5 15 13 11 19
-5 9 0 10 15 6 28 -7 127 27 123 42 -1 6 9 16 23 23 13 6 22 14 20 18 -3 5 11
17 30 29 19 11 34 26 33 33 -2 7 13 15 36 19 21 3 43 14 48 23 5 9 22 16 38
16 26 0 30 4 30 28 0 29 40 66 48 43 5 -14 87 -15 113 -1 10 6 19 17 19 24 0
8 12 12 38 11 20 -1 46 2 57 6 11 4 41 8 67 8 36 1 46 -2 42 -13z m88 -304
c27 -52 38 -86 38 -118 0 -24 5 -53 12 -64 19 -29 -3 -155 -40 -235 -87 -185
-300 -300 -497 -267 -185 30 -334 166 -389 350 l-15 54 47 -7 c54 -7 134 22
152 55 8 14 21 20 45 20 19 0 35 4 35 9 0 5 10 13 23 16 52 16 88 38 83 51 -3
8 8 24 24 36 23 16 27 25 19 35 -6 7 -7 13 -2 13 5 0 36 17 69 39 33 22 62 34
65 29 9 -13 89 40 83 55 -3 9 24 11 103 7 l108 -5 37 -73z"/>
<path d="M1555 2408 c17 -6 36 -15 43 -21 7 -5 15 -7 18 -4 8 8 -51 37 -73 36
-11 0 -6 -5 12 -11z"/>
<path d="M1260 2368 c-32 -12 -66 -34 -80 -51 -14 -17 -32 -39 -42 -48 -9 -10
-14 -20 -11 -22 2 -3 -5 -27 -16 -52 -12 -26 -21 -53 -21 -59 0 -6 -11 -35
-25 -65 -19 -40 -21 -50 -9 -40 21 17 53 87 54 115 0 12 9 41 19 65 35 78 67
112 139 146 77 36 73 42 -8 11z"/>
<path d="M2460 2307 c0 -4 16 -23 35 -43 20 -20 45 -55 56 -76 11 -22 22 -38
25 -35 8 8 -45 92 -80 126 -20 19 -36 32 -36 28z"/>
<path d="M1258 2152 c-22 -21 -39 -43 -37 -48 2 -5 25 12 52 38 56 57 44 65
-15 10z"/>
<path d="M670 1855 c-13 -14 -20 -25 -16 -25 5 0 4 -6 -1 -12 -5 -7 -9 -20 -8
-28 1 -8 3 -28 5 -45 l3 -30 7 35 7 35 3 -35 c2 -19 4 -43 3 -52 0 -26 17 -22
18 5 1 24 4 18 14 -26 4 -23 9 -26 19 -18 10 9 17 7 27 -6 13 -16 12 -17 -2
-5 -14 10 -17 9 -22 -8 -4 -14 0 -23 11 -27 9 -4 21 -12 25 -20 4 -7 15 -13
24 -13 12 0 13 3 4 13 -6 8 -8 17 -5 20 3 3 -3 19 -15 35 -11 16 -26 42 -32
58 l-12 29 -7 -30 c-7 -29 -8 -29 -9 -4 -2 47 -13 89 -22 83 -20 -12 -7 26 18
57 27 31 27 32 4 24 -16 -5 -21 -4 -17 4 12 19 1 12 -24 -14z"/>
<path d="M2742 1570 c0 -45 2 -67 7 -55 4 11 5 45 1 75 l-7 55 -1 -75z"/>
<path d="M2701 1183 c-8 -26 -16 -52 -20 -58 -7 -13 -12 -45 -7 -45 7 0 48
130 44 141 -2 5 -10 -12 -17 -38z"/>
<path d="M2587 903 c-24 -40 -57 -103 -54 -103 6 0 52 72 60 93 6 17 2 24 -6
10z"/>
<path d="M2418 670 c-41 -43 -52 -65 -17 -34 21 19 63 74 57 74 -2 0 -20 -18
-40 -40z"/>
<path d="M2091 2776 c10 -9 109 -56 109 -51 0 5 -95 55 -106 55 -4 0 -5 -2 -3
-4z"/>
<path d="M2210 2716 c0 -2 24 -19 52 -37 81 -49 136 -93 222 -177 327 -320
474 -776 396 -1224 -52 -297 -176 -536 -390 -748 -150 -149 -315 -254 -513
-326 -109 -39 -105 -45 5 -8 93 31 223 96 316 159 324 217 541 558 602 950 16
99 13 334 -4 435 -63 359 -260 680 -545 889 -80 59 -141 97 -141 87z"/>
</g>
</svg>
