<?xml version="1.0" standalone="no"?>
<!DOCTYPE svg PUBLIC "-//W3C//DTD SVG 20010904//EN"
 "http://www.w3.org/TR/2001/REC-SVG-20010904/DTD/svg10.dtd">
<svg version="1.0" xmlns="http://www.w3.org/2000/svg"
 width="736.000000pt" height="736.000000pt" viewBox="0 0 736.000000 736.000000"
 preserveAspectRatio="xMidYMid meet">

<g transform="translate(0.000000,736.000000) scale(0.100000,-0.100000)"
fill="#000000" stroke="none">
<path d="M3460 7123 c-184 -14 -439 -55 -590 -97 -170 -46 -292 -85 -375 -121
-16 -7 -55 -23 -85 -35 -73 -30 -173 -75 -235 -107 -27 -14 -77 -39 -110 -56
-77 -39 -264 -161 -380 -247 -193 -143 -364 -302 -545 -505 -51 -57 -202 -254
-236 -306 -15 -24 -40 -60 -55 -79 -14 -19 -43 -66 -64 -105 -21 -38 -49 -87
-62 -109 -64 -101 -174 -351 -234 -531 -124 -369 -177 -683 -184 -1080 -7
-409 48 -758 177 -1140 62 -184 203 -508 229 -525 4 -3 12 -17 18 -30 40 -95
236 -386 365 -540 140 -167 514 -523 576 -548 8 -3 53 -34 100 -68 211 -154
534 -323 790 -413 193 -68 455 -135 625 -160 219 -32 276 -36 555 -36 227 1
324 5 420 18 373 53 709 151 1012 295 488 231 904 558 1232 967 414 515 669
1142 737 1810 16 162 13 534 -6 700 -71 621 -282 1164 -644 1660 -190 260
-487 558 -719 722 -37 26 -69 50 -72 53 -13 14 -158 105 -265 167 -430 248
-860 386 -1360 438 -126 13 -485 18 -615 8z m1072 -1919 c35 -6 38 -9 35 -38
l-2 -31 70 -3 c39 -2 74 -7 80 -13 5 -5 30 -9 55 -9 35 0 57 -8 98 -35 l52
-36 -16 -30 -15 -30 85 -87 c78 -80 83 -88 70 -106 -21 -29 -18 -34 31 -64 49
-29 52 -37 30 -66 -13 -17 -13 -22 1 -37 10 -11 13 -26 9 -38 -4 -15 2 -25 25
-42 24 -18 30 -30 30 -60 0 -25 8 -47 25 -67 31 -37 31 -38 1 -46 -30 -8 -51
-59 -35 -88 9 -17 5 -27 -32 -64 -23 -23 -68 -57 -100 -74 -61 -32 -72 -51
-41 -69 15 -9 14 -13 -13 -35 -16 -14 -33 -25 -37 -26 -5 0 -9 52 -10 115 -1
63 -2 127 -2 143 -1 24 2 27 28 24 25 -3 28 -1 21 15 -29 72 -29 73 4 107 42
44 40 56 -11 56 -40 0 -48 5 -135 93 l-93 92 -345 3 c-190 2 -345 0 -345 -5 0
-4 16 -19 35 -32 19 -13 35 -27 35 -31 0 -8 -65 -60 -74 -60 -3 0 -6 7 -6 15
0 8 -6 15 -12 14 -7 0 -78 -33 -158 -73 -104 -52 -146 -78 -148 -92 -2 -13
-33 -35 -97 -69 -52 -28 -95 -53 -95 -56 0 -4 14 -12 30 -19 17 -7 30 -14 30
-17 0 -2 -22 -34 -50 -70 -27 -36 -50 -72 -50 -80 0 -21 -56 -40 -153 -54
l-87 -13 0 -33 0 -32 -87 -3 -88 -3 -21 -54 c-18 -43 -23 -50 -31 -37 -8 15
-14 13 -51 -17 -61 -51 -102 -74 -145 -82 -37 -7 -38 -7 -31 19 8 32 0 32
-112 11 -81 -15 -102 -13 -71 10 18 13 18 14 0 39 -10 14 -21 26 -25 26 -13 0
-9 23 12 65 25 52 25 51 -10 58 l-29 6 34 76 c43 95 44 105 4 105 -23 0 -30 4
-26 14 24 63 30 97 19 121 -11 23 -9 27 14 35 14 6 31 10 39 10 22 0 25 14 10
43 -16 30 -12 32 47 16 40 -11 54 -8 173 30 72 23 137 44 145 47 12 4 10 9 -9
23 -22 17 -22 41 -1 41 5 0 35 12 67 26 55 24 57 26 38 40 -23 17 -28 12 73
71 56 33 62 40 62 69 0 37 -1 36 105 54 79 14 115 32 115 59 0 14 16 21 80 35
l80 17 0 54 c0 62 13 81 79 115 50 25 49 25 53 -7 l3 -28 115 3 c132 4 162 16
192 73 18 35 21 37 58 32 22 -3 53 0 71 7 23 10 33 10 38 1 6 -8 18 -7 52 4
39 15 127 30 184 34 11 0 37 -2 57 -5z m-2343 -390 c75 -13 98 -14 122 -3 29
11 32 10 79 -36 l49 -48 42 12 c22 7 43 10 45 8 3 -2 -1 -16 -7 -30 -14 -31
-4 -48 39 -67 19 -8 39 -35 70 -96 40 -80 41 -85 20 -79 -13 4 -29 12 -37 18
-11 9 -12 1 -10 -47 l4 -57 -47 6 -47 7 22 -56 23 -55 -41 -126 c-35 -110 -42
-125 -59 -121 -14 4 -44 -17 -104 -72 -57 -51 -82 -69 -78 -54 7 20 5 21 -23
16 -27 -6 -32 -3 -42 22 l-11 29 -25 -42 c-14 -24 -29 -43 -35 -43 -5 0 -45
37 -88 83 l-79 82 -1 -60 -1 -60 -34 40 c-47 54 -101 148 -127 217 -23 64 -38
67 -38 8 0 -80 -17 -45 -35 70 -17 113 -25 134 -40 110 -3 -5 -10 -10 -15 -10
-20 0 20 90 63 145 25 33 45 61 43 63 -2 2 -21 -1 -42 -7 -21 -6 -39 -9 -41
-7 -2 2 46 34 106 72 82 51 109 73 105 86 -4 13 12 23 73 47 43 16 77 35 76
41 -4 14 17 13 126 -6z m2256 -198 l230 -4 22 -29 c37 -45 109 -172 142 -249
34 -81 51 -168 51 -271 0 -63 2 -72 20 -78 18 -6 20 -15 20 -78 -2 -488 -295
-922 -742 -1098 -28 -11 -97 -32 -152 -47 -92 -24 -117 -26 -276 -26 -155 1
-186 4 -271 26 -345 93 -616 313 -766 624 -48 99 -103 274 -103 325 0 16 8 19
49 19 32 0 53 -5 62 -16 19 -23 98 -11 179 28 36 18 77 32 92 32 22 1 37 14
73 64 l45 62 58 0 c75 0 96 7 107 33 7 16 28 27 74 39 76 21 161 60 185 87 17
18 16 19 -3 26 -12 3 -21 10 -21 13 0 4 34 36 76 71 l76 64 -27 22 -27 21 96
47 c57 27 96 52 96 61 0 8 30 31 67 50 92 49 103 52 103 27 0 -27 14 -26 53 2
18 13 63 45 100 71 63 44 67 49 53 65 -18 20 -13 30 12 25 9 -1 120 -5 247 -8z
m465 -186 c13 -9 13 -11 0 -19 -10 -7 -17 -6 -22 2 -17 26 -5 35 22 17z m-865
-2141 c114 -14 293 -55 416 -95 330 -106 641 -298 895 -552 124 -124 334 -394
334 -429 0 -17 -75 -79 -180 -148 -58 -38 -116 -76 -130 -85 -45 -30 -252
-137 -365 -188 -109 -49 -382 -146 -460 -162 -22 -4 -102 -22 -177 -39 -207
-47 -370 -63 -638 -64 -320 -1 -483 17 -780 90 -158 39 -372 111 -496 167
-190 87 -384 193 -494 269 -30 21 -79 55 -107 74 -29 20 -53 41 -53 48 0 16
136 218 197 294 114 143 346 355 500 458 310 209 695 343 1073 373 119 10 346
4 465 -11z"/>
</g>
</svg>
